# xmcd
#
# Track frame offsets: 
#        150
#        19718
#        42535
#        66193
#        88568
#        110068
#        127130
#        144338
#        159730
#        175988
#        197910
#        221198
#
# Disc length: 3223 seconds
#
# Revision: 1
# Processed by: cddbd v1.4PL0 Copyright (c) Steve Scherf et al.
# Submitted via: ExactAudioCopy v0.90b4
#
DISCID=b90c950c
DTITLE=Œ‰“‡Œƒ,¡ı–«,∂Œ∞®∞®,∂≈¥œ - —Ô∏Ë Yang Ge
DYEAR=1996
DGENRE=New Age
TTITLE0=The Loney One
TTITLE1=Yesterday
TTITLE2=Strangrer On The Shore
TTITLE3=Are You lonesome Tonight
TTITLE4=Shadow Of Your smile
TTITLE5=End Of The world
TTITLE6=When A Child Was Bron
TTITLE7=Only You
TTITLE8=Moon driver
TTITLE9=Love Me tender
TTITLE10=The way We Were
TTITLE11=Green Sleeves
EXTD=
EXTT0=
EXTT1=
EXTT2=
EXTT3=
EXTT4=
EXTT5=
EXTT6=
EXTT7=
EXTT8=
EXTT9=
EXTT10=
EXTT11=
PLAYORDER=
